<?xml version="1.0" encoding="utf-8"?>
<!-- Generator: Adobe Illustrator 16.0.0, SVG Export Plug-In . SVG Version: 6.00 Build 0)  -->
<!DOCTYPE svg PUBLIC "-//W3C//DTD SVG 1.1//EN" "http://www.w3.org/Graphics/SVG/1.1/DTD/svg11.dtd">
<svg version="1.1" id="圖層_1" xmlns="http://www.w3.org/2000/svg" xmlns:xlink="http://www.w3.org/1999/xlink" x="0px" y="0px"
	 width="1920px" height="1920px" viewBox="0 0 1920 1920" enable-background="new 0 0 1920 1920" xml:space="preserve">
<g>
	<polygon points="931.399,1307.784 918.46,1349.557 855.672,1189.001 895.754,1206.028 906.659,1223.334 	"/>
	<polygon points="1041.005,1183 160.244,1480.679 148.491,1495.67 1062.339,1191.001 1051.672,1183 	"/>
	<polygon points="1064.656,1191.001 145.689,1499.244 127.325,1522.67 1066.313,1205.264 	"/>
</g>
<g>
	<rect x="29" y="777" fill="none" width="1891" height="292"/>
	<path d="M80.898,947.15l7.488,8.875c-3.883,5.408-6.656,9.014-6.656,21.217c0,19.137,21.355,36.887,47.287,36.887
		c29.121,0,46.594-13.729,46.594-36.609c0-26.486-29.537-35.639-55.885-49.367c-40.77-21.217-59.768-38.135-59.768-65.314
		c0-33.143,30.23-52.834,68.92-52.834c35.223,0,66.008,12.48,66.008,33.975c0,10.678-6.24,24.129-25.1,29.814l-10.262-6.795
		c3.189-4.299,6.379-9.014,6.379-18.027c0-15.809-18.027-24.268-40.908-24.268c-21.494,0-37.58,12.758-37.58,31.756
		c0,23.297,18.721,32.588,54.775,50.893c34.529,17.611,63.65,33.42,63.65,62.818c0,42.018-35.361,58.242-78.488,58.242
		c-32.449,0-78.488-16.363-78.488-46.732C48.865,960.602,69.527,949.508,80.898,947.15z"/>
	<path d="M274.9,1013.02c31.617-3.051,35.916-3.883,35.916-25.238V827.615h-26.625c-26.764,0-33.559,17.473-42.988,40.492
		l-1.664,4.299h-13.59l15.531-59.49h179.719l-14.561,59.629h-13.313c1.803-9.846,2.912-17.75,2.912-23.99
		c0-16.779-8.459-20.939-33.836-20.939h-23.436v160.166c0,21.494,2.912,21.771,37.164,25.238v12.064H274.9V1013.02z"/>
	<path d="M437.979,1013.574c21.217-3.605,20.523-4.021,20.385-17.611l-0.139-14.283c-1.109-108.996,21.494-138.256,79.459-176.945
		h0.139c58.104,38.689,79.598,69.336,78.488,176.945l-0.139,14.006c-0.139,13.867,0.693,14.283,21.771,17.889v11.51h-76.131v-11.51
		c24.545-3.051,25.377-3.883,25.377-27.873v-33.559h-99.705v33.559c0,23.99,0.832,24.822,25.516,27.873v11.51h-75.021V1013.574z
		 M586.912,936.611c-0.277-46.594-10.123-73.635-49.229-112.324c-39.105,38.689-47.703,65.869-49.922,112.324H586.912z"/>
	<path d="M656.941,1013.713l4.715-0.693c16.225-2.219,19.275-3.051,19.275-24.684V848c0-17.75-2.08-21.217-23.99-23.158v-11.926
		h36.055c17.195,0,36.609-3.051,54.775-3.051c52.973,0,76.547,26.902,76.547,60.045c0,23.713-14.422,52.973-51.586,65.037
		l94.436,129.52l-10.4,7.904L735.43,936.334l6.102-12.342h10.539c19.83,0,40.77-17.057,40.77-52.557
		c0-24.268-9.291-46.455-45.207-46.455c-34.945,0-38.551,13.451-38.551,28.566v134.789c0,21.633,2.912,21.91,26.902,24.545
		l7.488,0.832v11.51h-86.531V1013.713z"/>
	<path d="M869.525,1013.574c21.91-1.941,23.99-5.408,23.99-23.02V847.445c0-17.611-2.08-20.523-23.99-22.465v-12.064h36.055
		c16.779,0,33.42-2.773,52.279-2.773c55.885,0,79.043,18.443,79.043,46.594c0,23.158-12.342,44.514-38.135,53.389
		c37.441,6.102,55.885,26.209,55.885,51.17c0,36.055-27.18,67.949-89.305,67.949c-19.553,0-39.799-4.16-59.768-4.16h-36.055
		V1013.574z M965.902,1013.158c45.623,0,57.41-22.465,57.41-46.039c0-21.494-9.568-44.375-43.266-47.287l-36.332-1.941v-13.035
		l28.705-1.803c26.764-2.496,33.143-24.961,33.143-43.682c0-19.414-8.598-34.391-47.148-34.391
		c-34.113,0-36.748,12.619-36.748,28.428v131.184C921.666,999.707,925.133,1013.158,965.902,1013.158z"/>
	<path d="M1096.254,851.189c0-19.275,0-24.545-19.553-26.209v-12.064h71.139v12.064c-19.275,1.803-22.326,6.518-22.326,23.436
		c0,94.297,5.963,118.01,62.957,163.355c56.439-46.316,59.906-67.811,59.906-163.355c0-16.918-3.189-21.633-22.188-23.436v-12.064
		h70.861v12.064c-18.166,2.357-19.414,5.547-19.414,26.209c0,110.105-25.1,142.971-89.166,180.412
		C1122.186,994.16,1096.254,961.295,1096.254,851.189z"/>
	<path d="M1317.436,1013.713l4.715-0.693c16.225-2.219,19.275-3.051,19.275-24.684V848c0-17.75-2.08-21.217-23.99-23.158v-11.926
		h36.055c17.195,0,36.609-3.051,54.775-3.051c52.973,0,76.547,26.902,76.547,60.045c0,23.713-14.422,52.973-51.586,65.037
		l94.436,129.52l-10.4,7.904l-121.338-136.037l6.102-12.342h10.539c19.83,0,40.77-17.057,40.77-52.557
		c0-24.268-9.291-46.455-45.207-46.455c-34.945,0-38.551,13.451-38.551,28.566v134.789c0,21.633,2.912,21.91,26.902,24.545
		l7.488,0.832v11.51h-86.531V1013.713z"/>
	<path d="M1568.432,947.15l7.488,8.875c-3.883,5.408-6.656,9.014-6.656,21.217c0,19.137,21.355,36.887,47.287,36.887
		c29.121,0,46.594-13.729,46.594-36.609c0-26.486-29.537-35.639-55.885-49.367c-40.77-21.217-59.768-38.135-59.768-65.314
		c0-33.143,30.23-52.834,68.92-52.834c35.223,0,66.008,12.48,66.008,33.975c0,10.678-6.24,24.129-25.1,29.814l-10.262-6.795
		c3.189-4.299,6.379-9.014,6.379-18.027c0-15.809-18.027-24.268-40.908-24.268c-21.494,0-37.58,12.758-37.58,31.756
		c0,23.297,18.721,32.588,54.775,50.893c34.529,17.611,63.65,33.42,63.65,62.818c0,42.018-35.361,58.242-78.488,58.242
		c-32.449,0-78.488-16.363-78.488-46.732C1536.398,960.602,1557.061,949.508,1568.432,947.15z"/>
	<path d="M1762.434,1013.02c31.617-3.051,35.916-3.883,35.916-25.238V827.615h-26.625c-26.764,0-33.559,17.473-42.988,40.492
		l-1.664,4.299h-13.59l15.531-59.49h179.719l-14.561,59.629h-13.313c1.803-9.846,2.912-17.75,2.912-23.99
		c0-16.779-8.459-20.939-33.836-20.939H1826.5v160.166c0,21.494,2.912,21.771,37.164,25.238v12.064h-101.23V1013.02z"/>
</g>
<g>
	<g>
		<g>
			<g>
				<g>
					<path fill="#202020" d="M1686.219,1431.239c0.063-0.912-1.146-1.945-2.301-0.712l0.645,2.817L1686.219,1431.239z"/>
					<path fill="#202020" d="M1674.273,1433.979c-0.803,2.189-1.283,5.352,1.181,6.553c0.051-3.201,1.062-2.629,0.932-6.301
						c1.153-1.238,2.843-1.048,3.202-0.101c0.065-0.894,2.432-1.075,2.152-2.937c-2.977-0.349-5.22,1.209-6.514,4.273
						C1674.384,1435.363,1674.451,1434.453,1674.273,1433.979z"/>
					<path fill="#202020" d="M1534.653,1515.811l1.075-0.182C1535.395,1515.601,1535.031,1515.674,1534.653,1515.811z"/>
					<path fill="#202020" d="M1442.492,1554.6c0.69-0.326,0.895-0.685,0.848-0.923
						C1442.739,1554.088,1442.253,1554.443,1442.492,1554.6z"/>
					<path fill="#202020" d="M1425.48,1557.637c0.371-0.04,0.674-0.105,1.006-0.159
						C1426.045,1557.373,1425.637,1557.372,1425.48,1557.637z"/>
					<path fill="#202020" d="M1534.653,1515.811l-2.771,0.446C1532.104,1517.111,1533.398,1516.22,1534.653,1515.811z"/>
					<path fill="#202020" d="M1659.848,1452.336c0.39-0.428,0.632-0.901,0.798-1.412c-0.313,0.361-0.626,0.697-0.966,1.022
						C1659.742,1452.076,1659.797,1452.19,1659.848,1452.336z"/>
					<path fill="#202020" d="M1572.458,1493.028l0.706-0.4c0.06-0.378,0.073-0.805,0.054-1.265L1572.458,1493.028z"/>
					<path fill="#202020" d="M1601.326,1475.459c-0.697,0.323,0.257,2.379,0.522,3.372c-0.118-1.02,0.128-1.696,0.605-2.202
						C1602.239,1476.259,1601.886,1475.877,1601.326,1475.459z"/>
					<path fill="#202020" d="M1648.355,1449.27l0.604-0.804C1648.813,1448.688,1648.521,1449.003,1648.355,1449.27z"/>
					<path fill="#202020" d="M1551.046,1504.28c-0.208-0.268-0.454-0.472-0.65-0.564
						C1550.528,1503.964,1550.761,1504.144,1551.046,1504.28z"/>
					<path fill="#202020" d="M668.447,1420.944c0.147-0.069,0.207-0.161,0.326-0.233
						C668.47,1420.674,668.302,1420.714,668.447,1420.944z"/>
					<path fill="#202020" d="M657.523,1380.748l0.358,0.433c0.41-0.134,0.813-0.263,1.188-0.443L657.523,1380.748z"/>
					<path fill="#202020" d="M1395.084,1564.651c0.064,0.006,0.084,0,0.144-0.001
						C1395.93,1564.158,1395.503,1564.342,1395.084,1564.651z"/>
					<path fill="#202020" d="M1114.184,1602.121c3.133,2.188-5.396,2.28-0.639,4.785
						C1113.142,1606.002,1118.142,1603.652,1114.184,1602.121z"/>
					<path fill="#202020" d="M1658.951,1452.605c-0.363,0.286-0.737,0.572-1.137,0.824
						C1658.381,1453.123,1658.729,1452.869,1658.951,1452.605z"/>
					<path fill="#202020" d="M1113.545,1606.906c0,0.008,0,0.018,0,0.018l0.492,0.239
						C1113.834,1607.058,1113.719,1606.997,1113.545,1606.906z"/>
					<path fill="#202020" d="M1326.295,1584.129c0.229,0.356,0.572,0.592,0.925,0.811
						C1327.146,1584.719,1326.925,1584.479,1326.295,1584.129z"/>
					<path fill="#202020" d="M1378.863,1574.202l-1.354,0.082C1378.069,1574.334,1378.497,1574.283,1378.863,1574.202z"/>
					<path fill="#202020" d="M1299.731,1592.68c-0.739-0.037-1.034-0.298-1.947,0.178c0.109,0.098,0.213,0.159,0.343,0.217
						C1298.422,1592.707,1298.861,1592.479,1299.731,1592.68z"/>
					<path fill="#202020" d="M1271.21,1597.432c0.178,0.149,0.396,0.25,0.595,0.377c0.279-0.076,0.604-0.166,0.892-0.244
						L1271.21,1597.432z"/>
					<path fill="#202020" d="M731.507,1486.496c-0.096-0.906,0.04-1.702,0.241-2.434
						C731.077,1485.585,727.353,1483.205,731.507,1486.496z"/>
					<path fill="#202020" d="M1659.104,1451.314c0.188,0.561,0.145,0.934-0.153,1.291c0.261-0.214,0.5-0.438,0.729-0.659
						C1659.557,1451.624,1659.389,1451.355,1659.104,1451.314z"/>
					<path fill="#202020" d="M1301.741,1610.351l-4.672,0.533C1298.396,1610.859,1300.094,1610.658,1301.741,1610.351z"/>
					<path fill="#202020" d="M918.358,1585.266l-1.108-0.079C917.63,1585.363,918.013,1585.422,918.358,1585.266z"/>
					<path fill="#202020" d="M1283.383,1613.464c-0.951-0.649-1.896-0.964-2.848-1.116c-0.164,0.207-0.36,0.383-0.448,0.66
						L1283.383,1613.464z"/>
					<path fill="#202020" d="M731.755,1484.039c0.002,0.012-0.008,0.023-0.008,0.023S731.758,1484.051,731.755,1484.039z"/>
					<path fill="#202020" d="M704.957,1467.015c3.247,3.21,3.558-0.592,5.431-1.144c4.462,3.121,0.297,3.3,0.588,5.678
						c2.964,1.818,6.762,1.492,8.536,3.258c-0.188,0.485,0.058,0.944-0.777,1.014c2.113,0.317,4.091,2.053,6.178,3.783
						c2.11,1.697,4.382,3.325,6.901,3.526c0.066,0.397,0.025,0.687-0.06,0.909c0.438-1.565,1.331-2.782,2.123-3.516
						c1.563,1.246,4.021,0.938,3.369,2.911c-0.9-0.829-1.474-0.293-2.299-0.198l2.138,0.699c-0.313,3.36-2.802-1.098-4.116,0.481
						c1.875,0.959,4.045,1.817,6.075,2.635c2.017,0.836,3.798,1.755,4.786,3.03c-1.161,2.544-6.34-3.82-4.545,0.663
						c0,0-0.796-0.956-1.592-1.912c-0.803-0.944-1.568-1.934-1.568-1.934c0.165,5.715-2.098-2.136-2.354,3.621
						c4.577,4.642,6.538,3.392,11.109,8c2.055-0.31,0.975-2.063,3.034-2.388c8.903,3.193,1.705,9.75,9.253,10.809
						c2.484-0.481,5.005-2.917,7.861,1.271l-3.086,1.601c4.965,3.783,5.39-1.591,9.613,3.743c-1.656,0.407-4.596-1.905-4.033-1.058
						c2.112,4.421,3.446,0.22,6.136,1.996l-0.935,2.638c2.897,1.624,6.135,3.024,9.449,4.439c3.36,1.34,6.787,2.711,10.027,4.396
						c-0.759,0.483-2.271,0.559-1.238,2.164c8.609,3.584,16.843,10.193,23.996,15.79l4.096-0.464
						c0.684,0.396,0.802,1.634-0.164,1.632c2.662,2.409,0.842-1.225,2.749-1.28c1.832,0.739,1.706,2.371,0.265,2.435
						c3.193,0.495,7.561,1.495,11.7,3.01c4.153,1.489,8.143,3.364,10.512,5.893l-1.43,0.097c4.148,2.998,7.103-1.923,10.437,1.915
						l-0.982,0.021c2.375,1.325,4.899,2.5,7.442,3.617c1.275,0.551,2.549,1.1,3.814,1.646c1.274,0.522,2.538,1.04,3.784,1.551
						c4.977,2.056,9.493,4.371,12.72,7.5c2.693-2.592,9.516,5.253,11.827,1.086c2.472,2.215,3.254,3.302,4.353,4.439
						c1.103,1.134,2.538,2.282,6.406,4.486c2.138,0.984,4.251-1.61,7.124-1.13l-0.727,2.355l4.544-1.232l1.049,3.446l2.772,0.242
						c-0.98-0.476-1.832-1.765-1.454-2.388c4.35,0.242,9.246,4.848,8.986,6.062l10.189,0.888c-0.495,0.887-2.196,0.73-3.65,0.954
						c5.84-0.87,0.188,2.77,5.542,1.971c-0.471-0.728,0.753-1.308,0.999-1.754c1.901,2.179,7.275,3.635,11.401,4.123l-1.212,1.429
						c3.535,1.169,7.349,2.097,11.33,2.802c3.975,0.731,8.067,1.438,12.107,2.463c-2.717-1.493-1.345-4.188,1.078-3.876l0.338,2.766
						c1.898-1.184-2.237-1.566,1.35-2.705c2.942,0.996,1.353,3.357-0.587,3.783l3.893-0.045c0.041,0.807-0.917,1.012-1.368,1.927
						c1.874-1.238,5.807,3.985,8.612,1.734l0.04,0.804c2.035,0.463,3.804,0.807,5.416,1.083c1.615,0.263,3.081,0.422,4.495,0.589
						c2.83,0.324,5.472,0.59,8.813,1.191c0.56-2.184,3.063-1.173,5.375-2.565c4.751,1.568,9.888,4.263,15.834,5.112
						c4.335-0.404,1.521-1.676,3.602-2.697c-0.023,2.068,5.926,2.776,2.628,3.766c3.585,0.375,5.873,0.617,8.42,0.73
						c2.544,0.121,5.348,0.117,9.965-0.162c-0.866-0.955-1.913-1.457-1.252-2.077c1.674-0.126,3.599,1.325,3.238,2.271l-0.46,0.156
						c5.256-0.911,10.875,1.423,16.343,3.277c5.453,1.901,10.71,3.696,14.956,1.919l-0.474,0.174l8.588-1.545
						c3.835,0.661-2.44,1.35,0.32,2.844c9.314-2.622,14.319,1.491,21.936-0.348c1.367,1.589,3.344,2.436,5.655,2.862
						c2.313,0.38,4.96,0.345,7.67,0.243c5.423-0.227,11.079-0.611,14.973,1.296l-0.43-1.428c2.046-1.376,2.438,0.837,3.93,1.176
						c-0.2-1.107-2.182-1.299-0.913-2.061c4.29-0.393,8.638-0.436,13.031-0.267c4.392,0.069,8.828,0.357,13.289,0.738
						c2.232,0.203,4.468,0.406,6.703,0.609c2.239,0.172,4.478,0.343,6.713,0.514c4.474,0.326,8.943,0.665,13.365,0.766
						c6.468-0.024,3.225-7.582,11.509-4.697l-2.126,2.781c3.193-1.002,6.44-1.579,9.714-1.99c3.269-0.466,6.565-0.725,9.856-0.967
						c3.29-0.246,6.576-0.463,9.811-0.88c3.228-0.48,6.406-1.136,9.483-2.155c-0.684,0.689-0.618,1.479-1.853,1.607
						c2.88,1.61,9.883-1.009,9.731-2.568c1.985-0.043,0.626,1.355,1.935,2.011c2.82,0.787,6.386-3.336,8.051-1.629
						c0.281,0.275-0.669,0.721-1.138,0.934c1.616-1.158,8.138-0.87,6.167-2.837c2.434,0.201,4.658-0.351,6.765-0.854
						c2.104-0.523,4.081-1.051,6.058-0.699c2.057-2.84,8.244-0.122,8.45-3.703c0.128,1.813,2.31,2.2,4.798,1.863
						c2.491-0.313,5.255-1.501,6.586-2.596c-0.798,1.262,2.776,0.637,1.887,2.343c3.377-0.682,6.354-1.921,5.417-3.638
						c3.512,1.535,6.494,0.131,9.127-1.146c2.633-1.293,4.942-2.362,7.257-0.017c4.796-2.035,9.441-3.781,13.943-5.533
						c4.498-1.769,8.891-3.371,13.241-4.842c0.532,3.581-9.764,2.695-8.519,6.292c8.151-3.499,12.295-7.544,20.814-8.97
						c2.282-0.094-0.828,1.84-1.406,2.629c4.019-1.832,8.098-2.828,12.051-3.852c0.986-0.264,1.965-0.526,2.937-0.786
						c0.963-0.292,1.912-0.607,2.847-0.946c1.87-0.68,3.679-1.473,5.396-2.485c0.073,0.328-0.626,0.915-1.307,1.4
						c1.431-0.54,3.55-0.488,2.927-2.012l-1.3,0.843c-2.985-1.609,4.4-6.463,4.291-7.741c-1.132,5.228,7.635-0.996,5.42,5.837
						c0.875-0.577,1.855-1.673,1.315-2.656c1.516-0.119,2.151,0.334,1.076,1.984c4.944-2.504,2.575-3.586,7.288-5.049
						c0.223,0.764-0.634,1.359-0.843,2.405c1.924-2.237,3.837-4.476,8.012-5.103c-0.091,0.531,0.563,0.977-0.626,1.344
						c6.785-2.351,10.262-7.762,18.149-8.899c-1.047,4.017,2.896,0.198,4.287,2.876l3.698-2.227l-2.091-0.808
						c3.53-1.129,5.812-4.394,9.127-4.57l-2.146,2.12l6.29-2.967l-4.064,0.316c2.958-2.755-1.69-3.402,3.188-4.346
						c-0.825,0.631,3.455-1.258,5.885-0.29c0,0-0.012,0.004-0.009,0.011c1.36-1.548,2.772-3.077,5.559-3.428
						c1.005,0.623,0.677,3.289,1.336,3.707c0.757-2.999,7.771-3.891,8.886-7.212c-0.468,0.864,0.083,2.331,0.437,2.535l0.637-2.446
						c1.828-0.04,2.181,0.156,2.396,1.417c4.912-1.587-2.955-2.892,3.321-3.67c-0.381,0.331-0.052,0.526-0.859,1.185
						c1.499-0.385,2.915-0.906,4.255-1.552c1.337-0.651,2.62-1.38,3.889-2.097c2.539-1.434,5.022-2.823,7.805-3.487
						c2.729,2.091-4.224,2.638-1.468,4.204c3.627-1.877,7.136-4.369,10.651-6.728c3.481-2.438,6.984-4.715,10.695-6.051
						l-1.469,0.316c-0.809-4.302,6.193-0.565,8.949-4.053c-0.747,0.692-0.145,2.663-0.109,2.125c2.604-0.803,4.95-2.287,7.504-4.123
						c2.554-1.839,5.301-4.056,8.65-6.462l-0.416,1.423c3.275-0.55,7.759-3.179,10.994-4.385c0.4-1.441,2.213-2.2,0.43-3.05
						c6.1,0.288,10.191-2.813,14.052-5.94c1.946-1.541,3.784-3.19,5.827-4.412c2.041-1.226,4.272-2.049,6.949-2.067
						c-0.971,0.558-1.867,2.14-1.088,1.703l6.479-4.781c-1.466-1.299-1.468-0.46-3.637-0.894c0.341-1.448,1.877-3.284,3.595-4.247
						c-2.512,2.813,1.498,2.563,3.368,2.696c-0.509-0.364-0.357-1.165-0.76-1.601c5.264,0.787-1.251-3.557,4.744-4.525l0.231,0.992
						c1.577-1.516,2.605-3.621,4.714-4.552c1.907,1.354-1.434,2.015-0.666,3.604c2.714-1.757,3.386-6.727,6.983-6.387
						c-0.867,1.209-2.553,2.223-3.425,3.43c4.019,0.533,4.012-0.207,6.248-1.073l-0.229,0.07l5.289-1.83l-1.55,0.136
						c0.532-6.852,6.438-5.234,9.1-11.211c-2.622,5.736,0.326,2.158,1.273,4.424c1.534-0.17,3.729-0.66,3.583,0.237
						c1.131-3.022,4.474-0.995,6.009-5.341c0.56,0.569,2.373-1.403,2.945,0.551c2.462-2.365-1.396-0.695-1.701-1.689
						c2.846-5.053,11.888-4.014,16.045-11.161c4.498-4.767,3.947-7.651,8.033-12.117c2.346-0.121,0.283,3.274,0.283,3.274
						c3.292-0.908,5.162-2.479,7.133-4.955c-0.111,0.911,0.739,1.018,2.004,1.199c1.882-1.569-0.308-3.254,2.99-4.164
						c0.055,1.026,0.283,2.565-0.179,3.953c1.934-2.258,3.449-5.021,5.418-7.373c1.427,0.622-0.222,2.759-0.578,4.066
						c2.368-2.451,6.267-6.154,5.831-8.492l-2.178,0.656c0.918-0.808,1.596,1.117,1.104,1.971c-1.313,3.07-3.766,1.857-4.354,1.317
						l1.409-1.663c-2.229-1.218-3.791,0.233-5.33,2.177c-1.528,1.955-2.964,4.505-4.786,5.621l-0.474-3.734l-1.978,4.763
						c-1.26-0.176-2.844-1.332-1.414-2.944c-3.436,0.402-1.528,2.519-4.72,2.519c-0.398-0.069-0.384-0.275-0.241-0.537l-1.866,2.522
						c0.078-0.909-1.742-1.648,0.024-2.301c-2.728,0.741-4.128,2.486-5.237,3.936c-1.111,1.444-1.96,2.545-3.498,2.063l0.256-0.416
						c-5.529,5.029,0.779,2.416-2.256,7.879l-6.457-2.942l0.745,2.438c-0.686,0.35-2.044,1.033-2.35,0.063
						c-1.445,2.969,0.989,0.618,0.483,2.85c-2.144,0.09-4.11,1.711-5.897,2.962c-1.783,1.256-3.437,2.06-4.83,0.654
						c-0.114,2.265,3.751-0.669,1.125,2.51c-3.204-2.93-3.458,3.023-7.332,3.193c-0.279-2.377,3.017-3.1-0.851-2.942
						c0.233,4.166-5.947,2.797-7.961,4.891c0.708,1.271-0.435,2.35-2.193,3.528c-1.774,1.151-4.189,2.358-5.978,3.991
						c-0.248-0.99-8.498,3.195-12.813,4.539l-0.135-0.488c0.375,1.486-0.487,2.692-1.762,3.805
						c-1.284,1.095-3.002,2.055-4.295,3.135c-0.758-1.591-0.582-2.484,0.588-4.043l-2.703,1.532
						c-0.174,1.177-0.775,2.083-2.372,3.364l-0.397-2.295c-3.541,2.126-6.01,6.337-11.366,7.66c0.714,1.948,6.456,2.92,2.165,6.895
						c-0.717-0.875-1.8-2.431-0.727-3.554c-0.35,0.372-1.072,1.647-2.166,1.682l1.099-2.707c-2.525,0.446-0.376,1.97-2.178,2.733
						c-0.718-1.408-1.809-0.319-2.157-1.553c0.365-0.366,1.809-0.218,2.172-1.11c-2.073,0.774-4.855,1.187-6.19,0.537
						c0.592,0.704,1.004,1.876-0.318,2.806c-3.61,2.037-2.145-1.017-4.656-0.608c-0.375,1.439-3.235,1.664-2.204,3.79
						c-1.078,0.556-1.784-0.316-2.492-0.665c-0.707,0.958-2.879,2.203-4.478,3.319c-1.612,1.088-2.635,2.089-0.983,2.672
						l0.569-0.098c-0.07,0.09-0.178,0.145-0.268,0.248c0.016-0.008,0,0,0.016-0.008l-0.016,0.008
						c-5.261,5.22-13.685,5.321-19.503,9.288l-0.331-0.719c-3.39,2.57-8.175,4.389-10.162,7.187
						c-1.121,0.519-3.243-0.082-3.158-1.16c-2.64,1.871-2.589,2.864-7.313,3.57c2.354-2.563-1.495-0.637,2.566-2.28
						c-4.023,1.133-5.421,0.267-8.604,4.034c0.567-2.453-3.87-1.098-5.425,0.238l3.229,0.175c-1.907,1.15-3.75,1.755-5.615,2.378
						l-0.079-2.868c-8.929,0.438-11.921,10.957-19.914,8.372c-1.376,2.565,4.736-0.503,3.703,2.265
						c-3.748,1.129-8.9-0.906-10.022-0.461c-5.461,0.575-3.221,5.391-8.791,6.429c1,0.636,2.538,2.766-1.063,5.074
						c-3.784,1.046-5.869-2.05-3.84-3.626c0.845-0.402,1.372-0.276,1.447,0.037c1.056-0.764,2.452-1.725,0.651-2.147l-0.138,1.065
						c-2.145-0.229-7.104,1.742-6.467-0.16c-2.429,1.879-0.64,1.903,1.566,1.601c-5.119,0.492-7.318,2.637-12.467,3.442
						c0.941,0.228,2.022,1.033,1.252,1.29c-7.493,1.355-2.535,2.786-7.229,4.855c-3.206-0.419-0.132-3.611-4.591-0.78
						c-3.271,0.098-1.423-2.173-0.5-3.312c-1.901,1.652-4.077,2.02-6.09,2.06c-2.014,0.042-3.867-0.251-5.183-0.008l2.095-1.472
						c-1.252,0.877-2.399,1.229-3.563,1.596l1.912,1.383c-1.473,0.121-2.636,0.486-2.85-0.275c-1.038,1.638,2.044,2.663-0.257,5.183
						c-2.124-0.335-5.29,2.774-6.667,0.569c6.02-1.023-1.381-2.216,3.367-4.157c-0.849,0.586-1.997,0.94-3.472,1.061
						c-0.288-0.203,0.041-0.561,0.373-0.818c-3.076-0.191-3.5,0.678-3.878,1.808c-0.375,1.138-0.699,2.545-3.587,3.356
						c0.323-1.573-2.102-2.192-2.95-1.63c2.32-0.646,1.783,1.948-0.043,3.614c-4.005,0.017-3.789,1.961-5.763,2.402l2.355-0.146
						c-0.356,1.583-2.262,1.945-4.727,3.13c-0.52-0.999,2.14-1.417,1.085-1.616c-1.095,1.611-2.888,1.488-4.856,1.247
						c-1.974-0.251-4.106-0.565-5.896,0.778c-2.111-0.436-0.875-2.529-2.674-2.728c-4.022,2.971-5.353-0.595-9.684,2.126
						c1.828,1.489,1.959,0.973-0.916,3.659l7.441-3.36l-4.298,4.009c2.36-0.597,4.661-2.475,6.15-2.534
						c-1.985,2.137-1.865,1.613-0.333,2.847c-3.946-1.933-5.974,3.34-10.198,2.393l-1.031-4.611
						c-6.103-0.713-9.397,4.73-16.973,5.313l2.528,0.242c-0.561,2.061-4.446,1.353-6.666,2.568c-0.121-1.59-1.73-1.836-2.952-2.58
						c0.372,1.118-5.38,1.031-5.396,4.26l-3.701-1.341c-3.047,0.204-4.506,1.688-5.949,3.151c-1.445,1.454-2.864,2.943-5.788,3.216
						c1.405-2.009-1.406-2.623,2.192-4.544c-1.912,0.341-3.682,0.377-3.508,1.457c-1.295-0.764-4.913,3.082-6.943,1.936
						c-0.683,0.833-0.655,2.511-2.831,2.783c-0.29-0.271-0.126-0.77-0.126-0.77c0.128,0.77-3.188,1.674-1.004,3.045
						c-3.39-1.912-7.512-1.184-11.531-0.348c-4.021,0.815-7.937,1.753-10.83,0.023c-4.13,1.097-9.137,2.291-12.947,2.927
						c0.184-0.502-0.09-0.782,0.655-0.718c-2.731-0.369-3.395,0.866-4.159,2.093c-0.763,1.228-1.625,2.462-4.746,1.97
						c-3.385-2.19,3.035-1.728,0.999-2.473c-1.451-5.068-7.182,1.514-11.569-1.048l0.946-0.414
						c-3.271-1.425-7.325,2.852-12.442,2.876c0,0,0.203-0.479-0.043-0.785c-3.215,2.938-9.727,4.396-14.568,5.543
						c1.373-2.146,2.14-1.263,1.057-3.24c-2.167,0.473,0.898,3.286-3.448,4.146c-1.509-1.021-4.737-1.792-5.298-3.966l4.113-0.378
						c-2.305-2.715-5.322,0.433-7.527,0.074l0.2-1.262c-6.275,0.77-6.193,4.023-13.019,4.036l0.747,0.917
						c-3.593,3.253-3.195-1.629-6.817,0.827l-1.239-3.112c-1.211,0.429-3.331,1.274-5.704,2.109c-2.372,0.853-5,1.559-7.203,1.905
						c1.229-1.189,3.122-2.103,5.1-2.897c1.977-0.818,4.036-1.564,5.602-2.315c-1.213,0.035-3.271,0.175-5.18,0.503
						c-1.909,0.284-3.672,0.765-4.289,1.553c0.975-0.319,2.189-1.11,3.169-0.639c-2.918,2.525-6.842,3.806-11.708,3.823
						c0.396-3.071-2.765-3.398-6.466-3.573c-3.7-0.248-7.953-0.329-9.681-2.722c-8.582,2.277-16.918-1.328-26.845-1.27
						c1.659,2.437,0.935,2.447-0.161,2.461c-1.094,0.009-2.553-0.023-2.361,2.441c-2.342,0.184-3.226,0.053-3.417-0.276
						l-6.871-3.313c-1.578-1.515,2.265-0.952,2.114-2.06c-5.035-0.659-1.998-2.19-5.252-3.674c0.575,1.765-1.922,2.448-4.748,1.527
						c0,0,0.973,0.643,1.946,1.286c0.978,0.619,1.956,1.239,1.956,1.239c-7.264,2.131-5.806-4.556-13.105-2.53l2.37-1.354
						c-1.856,0.307-5.214,0.03-8.598,0.132c-3.38,0.057-6.784,0.429-8.773,2.206c-0.59-0.628-1.302-2.048,0.336-2.233
						c-2.159-0.372-4.474-0.423-6.839-0.34c-1.184,0.042-2.378,0.117-3.571,0.203c-1.192,0.062-2.38,0.122-3.552,0.183
						c-4.689,0.226-9.134,0.251-12.349-1.378l0.82-1.101c-1.664,0.141-3.132,1.875-4.985,0.362c0.175-0.474,0.818-1.083,0.081-1.266
						c-0.909,0.278-4.592,1.424-6.632,0.409l2.028-1.054c-4.1-1.413-7.452-1.092-10.705-0.453c-3.237,0.565-6.373,1.452-9.986,1.234
						c0.627-3.488-5.791-5.701-8.955-6.939l0.208-0.467c-4.816-1.186-9.08-1.294-13.321-1.165c-4.238,0.121-8.419,0.328-13.08,0.011
						c-1.185-1.245-2.933-2.229-5.021-3.07c-2.083-0.86-4.492-1.638-7.026-2.361c-5.062-1.461-10.61-2.785-14.731-5.088
						c1.184,0.99-0.934,2.589-2.605,2.496c-1.886-1.258-6.413,0.771-5.208-2.248l0.724,0.264c-0.355-1.74-1.651-2.699-3.272-3.348
						c-1.616-0.662-3.544-1.066-5.184-1.6l-1.745,3.887c-3.456-4.279-9.297-5.331-14.62-6.465
						c-5.331-1.081-10.253-1.883-11.681-5.31c-2.395,0.271-4.936-0.644-7.329-0.37l0.868-2.097c-2.745-1.279-4.799-2.235-7.069-3.12
						c-2.251-0.933-4.71-1.812-8.285-2.888l1.995-0.971c-3.849-1.638-7.311,4.209-11.008,2.915l0.167-3.586
						c-6.831-2.759-12.536-8.239-20.359-8.424c0.31-0.405,0.901-1.212,2.042-0.858c-1.561-0.736-4.377-2.603-6.895-3.691
						c-2.512-1.098-4.7-1.504-5.115,0.881c1.19-2.779-6.711-3.492-10.902-3.995l1.532-1.741c-4.26,1.11-4.688,1.718-9.243,0.321
						c-0.865-0.762-0.067-2.033,0.994-0.859c-2.779-2.708-3.536,0.582-7.016-2.5l2.149-0.512c-3.33-1.857-3.389-1.075-6.02-0.593
						c-2.538-0.349-6.128-3.933-5.652-5.965c-1.034,0.831-3.681,1.301-5.368-0.302c0.108-0.82,1.042-0.814,1.52-0.828
						c-4.781-4.467-9.516-2.459-12.23-6.531c0.296-0.682,0.236-1.141,0.034-1.514c4.356,2.558,7.827,4.686,7.416,4.638
						c1.01-1.79-2.326-4.117,1.88-4.979c-3.569-0.266-10.157-0.103-13.024-3.056c-0.061-0.271-0.121-0.535-0.079-0.881l0.469,0.016
						c-0.674-0.651-1.471-0.914-2.31-1.021c-0.903-0.946-1.457-1.578-2.476-2.235c0.492-1.686-3.493-3.187-5.121-4.391
						c-1.066,1.988-3.104,0.233-2.014,3.156c-0.185-0.313,0.467-0.018,1.651,0.641c0.292,0.11,0.611,0.278,0.85,0.275
						c-0.066,0.031-0.144,0.064-0.221,0.092c1.158,0.664,2.671,1.531,4.389,2.516c-1.964,0.127-3.939,0.093-5.167-2.182
						c-1.648,0.652-3.417,1.275-4.341,1.507c-0.666-4.173-4.222-8.505-3.77-10.517c-2.935-1.165-6.011-3.113-9.114-4.535
						c-1.546-0.718-3.089-1.321-4.603-1.67c-1.5-0.366-2.951-0.506-4.363-0.229c-1.748-0.614-0.927-2.188-1.064-3.113
						c1.071,0.263,2.007,1.033,2.807,0.868c-3.467-1.227-8.669-5.83-11.108-4.034c-2.697-3.814,3.62-0.609-1.482-4.007l1.201-0.204
						c-1.635-2.785-3.684-4.547-5.97-5.846c-2.284-1.298-4.711-2.239-7.209-3.19c-2.475-0.978-5.015-1.975-7.245-3.647
						c-2.215-1.688-4.201-3.965-5.662-7.308c0.437,0.891,0.666,1.327,0.475,1.819c-2.426-2.998-5.054-5.823-7.885-8.481
						c-1.409-1.335-2.887-2.61-4.338-3.917l-4.307-3.976c-1.436-1.326-2.864-2.662-4.255-4.025c-1.347-1.403-2.641-2.85-3.877-4.333
						c-1.235-1.485-2.403-3.016-3.474-4.607c-1.057-1.603-1.941-3.327-2.738-5.092c-2.046-3.803-3.81-2.938-6.575-4.069l1.333-2.233
						l-4.898-1.812c-2.728-1.901-3.272-4.942-3.886-8.096c-0.331-1.564-0.73-3.128-1.529-4.566c-0.78-1.452-2.045-2.724-3.882-3.885
						l-0.804,1.766c-1.279-2.579-5.697-7.153-3.848-7.732c-0.408-0.09-1.952,0.095-1.824-1.296l1.038-0.729l-5.369-5
						c-0.965-2.598,0.243-3.011,1.219-3.662c0.984-0.654,1.674-1.504,0.035-5.038c-1.734-2.323-7.074-5.74-7.34-4.406
						c0.487,1.088,0.682,3.063-0.408,3.711l-1.836-2.144c-3.563,1.209-8.035,0.838-7.167,8.254l4.242,3.286l-0.875,2.252
						l-1.977-3.607c-0.421,2.858,1.532,3.526,3.283,4.434c-0.648,0.802-0.895,1.723-0.722,2.742l5.464,2.372
						c-0.965,1.245-3.568-0.405-2.652,2.801c2.536,1.095,1.746-3.518,4.512-0.883c-0.268,2.854-1.757,2.995,0.92,4.533
						c-0.607,0.831-1.435,0.669-2.377-0.024c2.284,1.445,3.878,5.179,6.205,5.143c-0.249,1.611,1.042,3.209,1.991,4.63
						c0.945,1.425,1.555,2.682,0.045,3.599c1.146,0.141,4.686,1.916,6.123,3.595c-5.862-0.714,4.846,6.736,0.614,8.65
						c4.747,0.14,8.185,7.439,13.185,10.175c-0.417-0.03-1.255-0.081-1.409-0.567c0.827,1.263,1.198,2.217,1.447,3.106
						c0.244,0.892,0.363,1.721,0.742,2.677c2.606-1.789,6.243,1.18,9.319,1.705c0.238,4.757-4.185,0.869-5.551,3.677
						c0.882-0.939,2.386-0.149,3.831,0.492c1.438,0.649,2.738,1.232,3.073,0.059c0.587,3.294,1.013,2.351,0.151,5.195
						c3.148-2.383,2.296,1.412,5.618,1.381c1.494,4.216-1.849,3.344,2.183,5.589
						C708.794,1468.777,704.957,1467.015,704.957,1467.015z M792.599,1525.33c-0.011,0.018-0.02,0.031-0.023,0.038
						c-0.793-0.422-1.47-0.782-1.902-1.012C791.074,1524.559,791.63,1524.84,792.599,1525.33z M800.164,1529.738
						c-0.881-0.605-2.024-1.278-3.25-1.963c0.127-0.821,0.82-1.347,1.562-0.874C797.798,1527.111,799.359,1528.521,800.164,1529.738
						z M792.55,1507.004c1.317,0.431,1.467,1.039,1.383,1.527c-0.564-0.298-1.239-0.62-2.154-0.998
						c-0.078,0.051-0.198,0.09-0.282,0.15C791.835,1507.387,792.174,1507.122,792.55,1507.004z"/>
					<path fill="#202020" d="M788.927,1508.209c-0.19-0.063-0.332-0.043-0.556-0.166c0.125,0.318,0.256,0.604,0.406,0.867
						c0.268-0.115,0.54-0.231,0.779-0.334C789.344,1508.452,789.124,1508.323,788.927,1508.209z"/>
					<path fill="#202020" d="M1535.914,1515.594l-0.186,0.035c0.176,0.011,0.341,0.029,0.487,0.115
						C1536.058,1515.701,1536.025,1515.639,1535.914,1515.594z"/>
					<polygon fill="#202020" points="908.713,1583.274 908.885,1582.73 907.998,1582.954 					"/>
					<path fill="#202020" d="M1581.547,1499.659c0.178,0.126,0.438,0.216,0.835,0.19
						C1582.284,1499.735,1581.946,1499.692,1581.547,1499.659z"/>
					<path fill="#202020" d="M1599.617,1489.548l2.934-0.813C1601.224,1488.994,1600.318,1489.28,1599.617,1489.548z"/>
					<path fill="#202020" d="M1613.75,1482.12c-0.039-0.442-0.148-0.725-0.25-0.983c-0.014,0.002-0.021,0.006-0.033,0.005
						L1613.75,1482.12z"/>
					<path fill="#202020" d="M1384.055,1588.362c-0.203,0.071-0.398,0.16-0.564,0.271
						C1382.219,1589.457,1383.117,1589.016,1384.055,1588.362z"/>
					<path fill="#202020" d="M1453.93,1559.432c-0.602,0.662-1.196,1.313-1.887,1.844
						C1453.359,1560.965,1454.352,1560.641,1453.93,1559.432z"/>
					<path fill="#202020" d="M1302.254,1610.295c0.006-0.016-0.004-0.02,0.002-0.04c-0.178,0.041-0.336,0.063-0.515,0.096
						L1302.254,1610.295z"/>
					<path fill="#202020" d="M1448.75,1562.471c1.414-0.051,2.43-0.537,3.293-1.195
						C1450.96,1561.521,1449.668,1561.761,1448.75,1562.471z"/>
					<path fill="#202020" d="M1671.523,1444.217l0.671-0.382c-0.097-0.113-0.132-0.238-0.139-0.347L1671.523,1444.217z"/>
					<path fill="#202020" d="M1672.056,1443.488l0.528-0.722C1672.27,1442.999,1672.008,1443.215,1672.056,1443.488z"/>
					<path fill="#202020" d="M1673.692,1441.242l-1.108,1.524C1673.087,1442.402,1673.746,1442.002,1673.692,1441.242z"/>
					<path fill="#202020" d="M1653.73,1455.614l0.27,0.809C1654.011,1456.209,1653.93,1455.942,1653.73,1455.614z"/>
					<path fill="#202020" d="M1648.617,1459.491c1.355-0.725,4.133-0.774,5.591-2.423l-0.208-0.646
						C1653.869,1457.996,1649.023,1457.527,1648.617,1459.491z"/>
					<path fill="#202020" d="M1620.893,1465.93l4.785-2.399c-1.252-0.212-2.907-0.513-1.012-2.024
						C1617.675,1463.044,1626.883,1462.365,1620.893,1465.93z"/>
					<path fill="#202020" d="M1606.287,1473.674c2.199-1.862-0.698-1.052-0.829-1.548
						C1604.348,1473.759,1604.08,1474.163,1606.287,1473.674z"/>
					<path fill="#202020" d="M1501.646,1530.122l-0.593-1.981C1499.186,1529.334,1501.363,1528.871,1501.646,1530.122z"/>
					<polygon fill="#202020" points="1485.004,1549.048 1487.491,1549.354 1487.695,1547.221 					"/>
					<polygon fill="#202020" points="1466.939,1540.789 1467.715,1540.159 1464.61,1542.216 					"/>
					<path fill="#202020" d="M1275.993,1594.687l1.036,2.385C1278.427,1596.389,1278.295,1593.541,1275.993,1594.687z"/>
					<path fill="#202020" d="M1190.716,1605.743c-0.997-1.223-3.442-1.938-4.883-0.644
						C1187.771,1605.198,1189.744,1606.105,1190.716,1605.743z"/>
					<polygon fill="#202020" points="936.821,1571.036 938.711,1570.724 935.406,1570.464 					"/>
				</g>
			</g>
		</g>
	</g>
</g>
<g>
	<g>
		<g>
			<g>
				<g>
					<path fill="#202020" d="M1688.164,1428.291c-0.453-1.051-2.038-0.979-2.526,1.729c0,0,0.493,0.666,0.987,1.332
						c0.242,0.343,0.484,0.686,0.667,0.941c0.17,0.254,0.284,0.423,0.284,0.423s0.064-0.259,0.112-0.685
						c0.055-0.418,0.128-0.976,0.2-1.533C1688.026,1429.395,1688.164,1428.291,1688.164,1428.291z"/>
					<path fill="#202020" d="M1676.81,1442.9c-0.178,1.606-0.214,3.463,0.159,4.873c0.348,1.385,1.134,2.34,2.709,2.111
						c-0.29-1.98-0.162-3.007-0.045-4.067c0.105-1.062,0.202-2.175-0.418-4.336c0.448-1.226,1.16-2.126,1.826-2.647
						c0.646-0.532,1.287-0.66,1.639-0.252c-0.117-0.571,0.435-1.45,0.9-2.442c0.483-0.977,0.752-2.152,0.238-3.098
						c-3.069,2.54-4.904,6.128-5.557,10.873C1677.278,1444.46,1677.133,1443.319,1676.81,1442.9z"/>
					<path fill="#202020" d="M1491.818,1604.94l1.495-0.634C1492.855,1604.407,1492.35,1604.635,1491.818,1604.94z"/>
					<path fill="#202020" d="M1360.25,1683.211c0.996-0.608,1.297-1.072,1.233-1.313
						C1360.617,1682.569,1359.911,1683.131,1360.25,1683.211z"/>
					<path fill="#202020" d="M1335.839,1692.939c0.533-0.188,0.967-0.375,1.443-0.561
						C1336.65,1692.438,1336.065,1692.594,1335.839,1692.939z"/>
					<path fill="#202020" d="M1491.818,1604.94l-3.853,1.606C1488.211,1607.424,1490.06,1605.901,1491.818,1604.94z"/>
					<path fill="#202020" d="M1661.982,1474.928c0.472-0.749,0.748-1.469,0.915-2.198c-0.359,0.639-0.733,1.234-1.146,1.827
						C1661.837,1474.677,1661.911,1474.782,1661.982,1474.928z"/>
					<path fill="#202020" d="M1545.373,1563.898l0.986-0.756c0.108-0.46,0.158-0.957,0.167-1.479L1545.373,1563.898z"/>
					<path fill="#202020" d="M1585.467,1531.353c-0.952,0.678,0.185,2.66,0.474,3.702c-0.09-1.136,0.285-2.031,0.955-2.825
						C1586.634,1531.891,1586.188,1531.599,1585.467,1531.353z"/>
					<path fill="#202020" d="M1647.42,1477.85l0.729-1.296C1647.972,1476.901,1647.618,1477.438,1647.42,1477.85z"/>
					<path fill="#202020" d="M1515.276,1585.428c-0.265-0.221-0.586-0.354-0.849-0.379
						C1514.592,1585.277,1514.896,1585.388,1515.276,1585.428z"/>
					<path fill="#202020" d="M194.911,1613.813c0.151-0.067,0.191-0.179,0.308-0.255
						C194.849,1613.465,194.665,1613.492,194.911,1613.813z"/>
					<path fill="#202020" d="M167.477,1558.668l0.583,0.611c0.401-0.171,0.797-0.335,1.139-0.572L167.477,1558.668z"/>
					<path fill="#202020" d="M1291.955,1711.887c0.094-0.018,0.123-0.031,0.209-0.055
						C1293.181,1711.055,1292.562,1711.405,1291.955,1711.887z"/>
					<path fill="#202020" d="M877.191,1844.619c2.583,0.644,0.679,1.586-0.924,2.461c-1.601,0.881-2.895,1.751,0.963,2.39
						C876.432,1848.705,883.477,1845.049,877.191,1844.619z"/>
					<path fill="#202020" d="M1660.869,1475.79c-0.442,0.563-0.898,1.134-1.387,1.677
						C1660.178,1476.758,1660.604,1476.241,1660.869,1475.79z"/>
					<path fill="#202020" d="M877.23,1849.47c0.001,0.008,0.002,0.018,0.002,0.018l0.793,0.107
						C877.697,1849.543,877.511,1849.514,877.23,1849.47z"/>
					<path fill="#202020" d="M1192.198,1757.896c0.358,0.281,0.877,0.395,1.408,0.488
						C1193.485,1758.184,1193.145,1758.02,1192.198,1757.896z"/>
					<path fill="#202020" d="M1268.6,1728.073l-1.968,0.58C1267.447,1728.502,1268.069,1728.291,1268.6,1728.073z"/>
					<path fill="#202020" d="M1153.709,1776.296c-1.095,0.226-1.553,0.065-2.859,0.876c0.17,0.059,0.328,0.086,0.524,0.098
						C1151.778,1776.791,1152.407,1776.401,1153.709,1776.296z"/>
					<path fill="#202020" d="M1111.97,1791.204c0.278,0.087,0.613,0.109,0.921,0.166c0.403-0.177,0.875-0.383,1.292-0.565
						L1111.97,1791.204z"/>
					<path fill="#202020" d="M291.03,1711.362c-0.339-1.127-0.352-2.058-0.266-2.894
						C290.254,1710.138,284.856,1706.242,291.03,1711.362z"/>
					<path fill="#202020" d="M1660.996,1474.138c0.265,0.564,0.23,1.042-0.127,1.652c0.317-0.415,0.606-0.828,0.883-1.233
						C1661.58,1474.242,1661.355,1474.019,1660.996,1474.138z"/>
					<path fill="#202020" d="M1158.211,1793.553l-6.795,2.169C1153.368,1795.259,1155.826,1794.437,1158.211,1793.553z"/>
					<path fill="#202020" d="M578.38,1853.604l-1.664-0.101C577.324,1853.692,577.908,1853.759,578.38,1853.604z"/>
					<path fill="#202020" d="M1131.622,1803.168c-1.463-0.326-2.885-0.316-4.298-0.14c-0.22,0.265-0.49,0.511-0.59,0.821
						L1131.622,1803.168z"/>
					<path fill="#202020" d="M290.769,1708.441c0.005,0.016-0.005,0.027-0.005,0.027S290.774,1708.457,290.769,1708.441z"/>
					<path fill="#202020" d="M252.319,1680.454c4.867,4.836,4.332,0.162,6.55-0.041c6.474,5.006,1.223,4.167,2.193,7.181
						c4.238,2.963,8.902,3.675,11.658,6.273c-0.12,0.548,0.308,1.176-0.746,1.043c2.789,0.941,5.762,3.596,8.871,6.271
						c3.109,2.671,6.47,5.235,9.785,6.171c0.181,0.501,0.197,0.843,0.14,1.09c0.195-1.785,1.062-3.026,1.915-3.704
						c2.337,1.945,5.475,2.25,5.095,4.472c-1.374-1.258-1.994-0.764-3.047-0.874l2.956,1.439c0.389,3.997-3.916-2.106-5.249-0.543
						c1.328,0.846,2.76,1.666,4.208,2.478c1.468,0.785,2.944,1.574,4.379,2.342c2.842,1.563,5.4,3.167,6.996,4.98
						c-0.933,2.747-9.215-6.357-5.81-0.451l-5.064-5.485c1.634,6.876-3.298-3.083-2.208,3.731c3.537,3.403,5.879,4.872,8.212,6.334
						c2.333,1.464,4.64,2.942,8.269,6.222c2.664,0.157,0.808-2.2,3.468-2.048c12.509,6.31,4.484,12.094,14.85,15.264
						c1.597,0.053,3.104-0.467,4.804-0.281c0.851,0.092,1.745,0.364,2.731,0.965c0.999,0.582,2.085,1.494,3.303,2.898l-3.801,1.093
						c7.594,5.667,6.943-0.519,13.883,6.81c-2.134,0.02-6.663-3.4-5.702-2.275c3.887,5.674,4.69,1.178,8.788,3.885l-0.663,2.824
						c8.615,5.263,19.022,9.543,28.801,14.817c-0.943,0.383-3.029,0.14-1.211,2.18c3.203,1.497,6.405,3.215,9.582,5.082
						c3.193,1.837,6.41,3.735,9.545,5.757c3.126,2.047,6.24,4.086,9.284,6.079c3.042,2.008,5.997,4.019,8.828,5.958
						c0,0,0.354,0.021,0.886,0.051c0.536,0.02,1.25,0.046,1.965,0.072c1.426,0.049,2.853,0.099,2.853,0.099
						c1.068,0.555,1.534,1.938,0.159,1.769c4.354,3.141,0.909-1.214,3.597-0.916c2.763,1.181,2.968,2.97,0.947,2.759
						c2.324,0.563,5.051,1.421,8.056,2.271c2.99,0.882,6.179,1.923,9.32,3.096c3.128,1.203,6.259,2.424,9.095,3.765
						c2.834,1.345,5.376,2.804,7.383,4.358l-2.028-0.118c3.316,1.985,5.8,1.646,8.125,1.466c2.332-0.188,4.522-0.266,7.391,2.077
						l-1.41-0.122c3.726,1.826,7.686,3.366,11.658,4.854c3.971,1.489,7.94,2.962,11.829,4.296c3.876,1.369,7.603,2.793,11.052,4.307
						c3.469,1.453,6.648,3.041,9.392,4.861c3.264-2.389,15.282,6.24,17.633,2.032c2.093,1.249,3.501,2.156,4.625,2.901
						c1.121,0.755,1.951,1.37,2.905,1.994c1.913,1.234,4.305,2.563,10.573,5.027c3.416,1.077,5.893-1.563,10.269-0.977l-0.481,2.42
						c0,0,1.603-0.266,3.206-0.532c1.598-0.253,3.203-0.567,3.203-0.567l2.432,3.575l4.175,0.297
						c-1.575-0.507-3.166-1.853-2.763-2.488c3.266,0.164,6.993,1.456,9.909,2.851c2.926,1.338,5.033,2.813,4.984,3.447
						c0,0,3.848,0.251,7.696,0.503c1.918,0.141,3.846,0.215,5.29,0.278c1.443,0.063,2.405,0.105,2.405,0.105
						c-0.512,0.915-3.091,0.792-5.203,1.052c8.492-1.015,0.986,2.819,8.77,1.888c-0.888-0.73,0.792-1.35,1.044-1.81
						c3.388,2.193,11.784,3.523,18.072,3.89l-1.448,1.489c2.783,0.576,5.669,0.988,8.625,1.332c2.955,0.354,5.976,0.657,9.04,0.954
						c3.064,0.301,6.184,0.481,9.317,0.76c3.137,0.25,6.29,0.594,9.453,0.914c-2.23-0.604-2.995-1.674-2.744-2.51
						c0.252-0.85,1.521-1.498,3.383-1.469l1.208,2.732c2.554-1.364-3.759-1.352,1.343-2.833c4.67,0.76,2.876,3.259,0.074,3.838
						l5.831-0.337c0.263,0.807-1.122,1.083-1.569,2.036c1.258-0.69,3.676,0.204,6.248,0.963c2.573,0.715,5.301,1.281,7.118,0.016
						l0.262,0.799c3.173,0.254,5.917,0.417,8.408,0.528c2.494,0.065,4.736,0.084,6.903,0.093c4.335,0.006,8.371,0.044,13.547,0.152
						c0.301-2.239,4.319-1.576,7.455-3.269c3.775,0.575,7.759,1.183,11.936,1.819c2.092,0.3,4.236,0.573,6.429,0.772
						c2.192,0.187,4.435,0.251,6.723,0.22c6.431-1.092,1.884-1.896,4.771-3.222c0.234,1.025,2.631,1.5,4.381,1.899
						c1.75,0.389,2.852,0.683,0.486,1.451c10.97-0.488,14.032-0.52,27.824-2.648c-1.531-0.792-3.228-1.105-2.377-1.831
						c2.494-0.412,5.736,0.686,5.416,1.68l-0.656,0.233c7.702-1.881,16.709-0.755,25.365-0.016
						c8.654,0.857,16.938,1.279,22.936-1.312l-0.673,0.267l12.576-3.427c5.914-0.21-3.375,1.869,1.105,2.716
						c6.729-2.385,12.16-2.923,17.331-3.212c5.157-0.356,10.037-0.579,15.546-2.417c2.387,1.214,5.52,1.49,9.072,1.301
						c3.55-0.204,7.521-0.849,11.555-1.696c4.038-0.823,8.159-1.72,12.042-2.305c3.876-0.629,7.52-0.926,10.628-0.477l-0.922-1.287
						c2.799-1.895,3.816,0.182,6.115,0.108c-0.511-1.021-3.52-0.694-1.766-1.774c25.353-6.228,53.237-8.268,79.608-13.42
						c9.598-2.043,3.597-8.465,16.36-8.251l-2.721,3.447c18.296-7.998,39.013-10.455,56.707-18.691
						c-0.922,0.916-0.723,1.684-2.529,2.22c4.477,0.692,14.444-4.364,14.031-5.883c2.919-0.732,1.09,1.142,3.098,1.345
						c4.262-0.127,9.023-5.479,11.68-4.334c0.447,0.181-0.9,0.95-1.566,1.323c2.246-1.711,11.885-3.637,8.758-4.946
						c7.191-1.343,12.814-5.334,18.68-6.033c2.729-3.589,12.102-2.962,12.038-6.696c0.722,3.568,12.945-1.542,16.622-4.774
						c-1.055,1.563,4.123-0.33,2.972,1.716c4.88-1.879,9.13-4.185,7.615-5.604c5.257,0.294,9.466-2.262,13.224-4.48
						c3.755-2.234,7.047-4.171,10.595-2.587c13.704-7.551,26.438-14.256,38.889-20.557c0.482,1.755-3.021,3.365-6.392,4.933
						c-3.384,1.54-6.631,3.048-5.624,4.679c5.83-3.228,10.168-6.356,14.604-9.195c4.447-2.817,8.95-5.44,15.122-7.685
						c3.307-0.92-1.125,2.209-1.928,3.236c11.487-6.682,23.447-10.199,33.27-16.954c0.114,0.318-0.876,1.195-1.849,1.945
						c2.056-1.076,5.096-1.828,4.164-3.191l-1.85,1.371c-4.346-0.574,6.178-8.435,6.002-9.743c-0.759,2.961,1.982,1.988,4.534,1.275
						c2.541-0.729,4.896-1.201,3.375,2.839c1.239-0.945,2.621-2.479,1.829-3.313c2.172-0.7,3.1-0.438,1.578,1.688
						c7.072-4.439,3.672-4.679,10.418-7.98c0.327,0.726-0.895,1.674-1.18,2.857c2.727-3.083,5.459-6.16,11.437-8.389
						c-0.128,0.598,0.813,0.831-0.887,1.663c4.815-2.56,8.488-5.59,12.375-8.47c3.869-2.916,7.945-5.693,13.587-7.788
						c-1.515,4.704,4.121-0.894,6.075,1.451l5.272-3.796l-2.963-0.072c5.016-2.571,8.342-6.883,13.067-8.31l-3.095,3.069l9.002-5.53
						l-5.783,1.861c4.268-4.063-2.329-3.009,4.622-5.88c-1.186,0.996,4.936-2.676,8.355-2.55c0,0-0.016,0.009-0.013,0.016
						c1.978-2.171,3.97-4.459,7.957-5.843c1.41,0.304,0.861,3.305,1.785,3.514c1.183-3.496,11.13-7.107,12.816-11.146
						c-0.693,1.117,0.035,2.505,0.527,2.595l0.985-2.903c2.585-0.731,3.064-0.667,3.328,0.633c6.957-3.632-4.053-2.021,4.799-5.299
						c-0.548,0.51-0.093,0.597-1.252,1.629c4.254-1.98,7.985-4.543,11.618-7.074c3.646-2.514,7.207-4.973,11.128-6.782
						c3.724,1.258-6.036,4.522-2.247,5.189c10.353-6.87,20.012-16.447,30.502-22.255l-2.068,0.909
						c-0.859-4.445,8.645-3.029,12.674-7.984c-1.08,1.063-0.361,3.027-0.28,2.414c7.27-3.89,13.517-10.03,23.081-18.07l-0.666,1.769
						c4.547-1.909,10.87-6.674,15.438-9.259c0.658-1.777,3.216-3.331,0.819-3.601c8.385-2.044,14.203-7.179,19.688-12.317
						c5.491-5.144,10.656-10.278,17.927-12.494c-1.364,1.031-2.701,3.202-1.609,2.389c0,0,2.294-2.022,4.588-4.046
						c2.277-2.042,4.555-4.083,4.555-4.083c-1.887-0.89-1.95,0.076-4.851,0.475c0.565-1.808,2.779-4.558,5.174-6.379
						c-3.606,4.277,1.84,2.338,4.349,1.71c-0.658-0.207-0.399-1.199-0.908-1.532c7.034-1.296-1.435-3.595,6.769-7.157l0.235,1.047
						c2.247-2.398,3.786-5.265,6.701-7.216c2.471,0.771-2.085,2.924-1.167,4.441c3.803-3.142,5.036-9.223,9.836-10.359
						c-1.246,1.774-3.576,3.672-4.829,5.447c5.346-1.098,5.395-1.947,8.443-3.918l-0.31,0.183l7.165-4.448l-2.077,0.833
						c0.608-4.101,2.826-6.32,5.415-8.528c2.598-2.191,5.517-4.438,7.45-8.523c-3.826,7.882,0.303,2.383,1.425,4.615
						c2.05-0.877,4.989-2.437,4.742-1.32c1.644-4.092,5.984-3.191,8.189-9.072c0.707,0.411,3.173-2.78,3.836-0.735
						c3.387-3.907-1.816-0.184-2.154-1.199c2.034-3.623,5.952-6.201,10.12-9.192c2.065-1.516,4.209-3.113,6.158-5.024
						c1.936-1.927,3.729-4.109,5.081-6.776c2.91-4.029,4.196-6.821,5.383-9.565c1.213-2.718,2.332-5.379,4.88-9.149
						c2.988-1.414,0.414,3.756,0.414,3.756c2.1-1.427,3.731-2.882,5.117-4.509c1.396-1.617,2.587-3.366,3.737-5.451
						c-0.09,1.164,0.975,0.796,2.569,0.264c2.281-3.013-0.568-3.73,3.434-6.855c0.149,1.204,0.548,2.926,0.071,4.906
						c2.273-3.929,3.853-8.286,5.99-12.418c1.825-0.191,0.034,3.486-0.283,5.309c1.368-2.237,3.085-5.2,4.382-7.871
						c1.228-2.737,2.067-5.146,1.561-6.427c0,0-0.592,0.612-1.226,1.187c-0.622,0.58-1.245,1.161-1.245,1.161
						c0.963-1.614,2.086,0.211,1.623,1.599c-0.539,2.344-1.639,3.562-2.682,4.142c-1.036,0.592-2.01,0.566-2.399,0.437l1.504-2.94
						c-2.862,0.035-4.541,2.781-6.22,6.099c-0.411,0.834-0.81,1.714-1.217,2.597c-0.423,0.871-0.848,1.751-1.286,2.606
						c-0.879,1.71-1.808,3.332-2.927,4.529c0,0-0.201-1.052-0.402-2.104c-0.213-1.053-0.426-2.105-0.426-2.105
						s-0.129,0.433-0.322,1.081c-0.204,0.644-0.477,1.501-0.748,2.358c-0.553,1.726-1.105,3.45-1.105,3.45
						c-1.586,0.523-3.604,0.038-1.918-2.723c-4.251,2.446-1.813,3.878-5.81,5.665c-0.502,0.139-0.49-0.117-0.321-0.51
						c0,0-0.561,1.013-1.147,2.01c-0.581,1.002-1.163,2.005-1.163,2.005c0.083-1.126-2.24-1.033-0.014-2.753
						c-1.723,1.17-3.016,2.458-4.053,3.746c-1.061,1.27-1.863,2.54-2.572,3.686c-1.407,2.3-2.48,4.068-4.455,4.273l0.327-0.626
						c-3.535,4.41-3.304,5.036-2.662,5.563c0.641,0.531,1.698,0.958-0.325,4.972c0,0-2.074-0.069-4.147-0.139
						c-2.071-0.088-4.143-0.177-4.143-0.177l0.896,2.523c-0.903,0.744-2.693,2.206-3.06,1.205c-1.975,4.211,1.268,0.256,0.537,3.144
						c-2.806,1.125-5.46,3.945-7.863,6.25c-2.428,2.276-4.596,4.035-6.364,3.014c-0.25,2.734,4.934-2.549,1.359,2.443
						c-4.058-1.969-4.695,5.156-9.831,7.098c-0.217-2.646,4.146-5.01-0.953-3.066c0.059,4.771-8.043,5.926-10.892,9.21
						c1.731,2.365-6.396,6.981-11.41,12.3c-0.131-0.523-3.036,1.313-6.641,3.704c-3.63,2.361-7.961,5.278-10.943,6.931l-0.144-0.507
						c0.77,3.1-5.039,6.974-8.723,10.502c-0.908-1.519-0.603-2.621,1.098-4.903l-3.773,2.887c-0.323,1.429-1.204,2.723-3.461,4.861
						l-0.369-2.478c-4.978,3.891-8.658,9.721-16.119,13.333c0.828,1.933,8.615,0.768,2.429,6.985
						c-0.91-0.706-2.278-2.053-0.72-3.754c-0.513,0.554-1.59,2.308-3.085,2.79l1.703-3.534c-3.482,1.53-0.662,2.401-3.179,4.002
						c-0.875-1.317-2.446,0.368-2.831-0.898c0.527-0.566,2.487-0.981,3.05-2.147c-2.889,1.724-6.723,3.322-8.501,3.125
						c0.756,0.56,1.239,1.738-0.644,3.322c-5.117,3.743-2.872-0.302-6.358,1.158c-0.625,1.779-4.573,3.18-3.317,5.168
						c-1.533,1.046-2.443,0.335-3.396,0.218c-1.051,1.358-4.157,3.596-6.445,5.488c-2.301,1.872-3.78,3.41-1.543,3.41l0.791-0.336
						c-0.103,0.129-0.255,0.234-0.387,0.387c0.023-0.015,0,0,0.023-0.015l-0.023,0.015c-7.578,8.025-19.309,11.354-27.693,18.02
						l-0.414-0.674c-4.871,4.208-11.635,8.128-14.595,11.974c-1.599,1.004-4.536,1.152-4.354-0.074
						c-3.801,3.103-3.81,4.133-10.479,6.726c3.44-3.747-2.078-0.15,3.735-3.495c-5.747,2.735-7.598,2.442-12.287,7.797
						c0.924-2.927-5.389,0.287-7.644,2.362l4.534-1.058c-2.735,2.012-5.36,3.385-8.032,4.765l0.028-3.114
						c-6.378,1.917-10.672,6.076-14.828,9.76c-4.133,3.712-8.123,6.95-13.738,7.039c-2.046,3.316,6.747-2.354,5.176,1.056
						c-2.675,1.325-5.831,1.929-8.517,2.313c-2.696,0.367-4.921,0.518-5.733,0.971c-7.813,2.699-4.723,7.126-12.692,10.357
						c1.411,0.304,3.545,2.023-1.628,5.893c-5.413,2.557-8.349-0.01-5.401-2.458c1.22-0.748,1.97-0.812,2.069-0.503
						c1.521-1.23,3.536-2.806,0.977-2.571l-0.221,1.205c-3.052,0.577-10.216,4.536-9.261,2.259c-3.524,2.93-0.954,2.284,2.213,1.134
						c-7.359,2.432-10.533,5.599-17.909,8.454c1.346-0.119,2.884,0.329,1.779,0.902c-10.759,4.311-3.667,3.944-10.418,7.924
						c-4.611,0.751-0.163-3.791-6.606,0.88c-4.73,1.3-2.051-1.785-0.705-3.335c-5.557,4.858-12.454,4.994-16.264,6.483l3.026-2.356
						c-1.811,1.406-3.469,2.214-5.151,3.045l2.771,0.744c-2.128,0.685-3.809,1.512-4.123,0.785c-1.49,2.129,2.969,2.053-0.336,5.592
						c-3.063,0.464-7.632,4.886-9.652,3.069c8.729-3.287-2.027-1.825,4.853-5.624c-1.226,0.938-2.894,1.728-5.035,2.397
						c-0.422-0.107,0.054-0.605,0.534-0.999c-8.964,1.834-2.411,4.366-10.743,8.286c0.442-1.781-3.086-1.517-4.31-0.602
						c3.358-1.561,2.622,1.379,0.01,3.822c-5.807,1.532-5.448,3.5-8.313,4.68l3.424-1.019c-0.48,1.796-3.245,2.867-6.799,5.009
						c-0.783-0.855,3.077-2.266,1.537-2.088c-3.106,4.196-10.455,2.009-15.569,6.146c-3.086,0.342-1.36-2.313-3.987-1.84
						c-5.744,4.636-7.847,1.361-14.078,5.795c2.741,0.876,2.905,0.293-1.185,4.134l10.746-6.214l-6.123,5.737
						c3.422-1.484,6.714-4.267,8.882-4.887c-2.814,2.962-2.66,2.362-0.377,3.09c-5.835-0.563-8.586,5.633-14.78,6.217l-1.718-4.404
						c-4.484,0.782-7.85,2.891-11.483,5.239c-3.642,2.322-7.563,4.862-13.094,6.539l3.726-0.67
						c-0.698,2.342-6.456,2.983-9.622,5.081c-0.278-1.593-2.652-1.245-4.492-1.555c0.623,1.021-7.827,3.071-7.637,6.365l-5.541-0.04
						c-8.927,2.648-8.242,8.038-16.78,10.778c1.9-2.572-2.284-2.159,2.854-5.456c-2.785,1.057-5.386,1.75-5.041,2.789
						c-1.975-0.306-6.993,4.891-10.087,4.449c-0.937,1.089-0.746,2.787-3.933,3.835c-0.454-0.177-0.256-0.736-0.256-0.736
						c0.258,0.735-4.57,2.784-1.213,3.427c-10.314-1.468-24.104,9.044-33.082,7.575c-2.998,1.293-6.311,2.697-9.576,4.012
						c-3.274,1.288-6.495,2.505-9.287,3.479c0.215-0.567-0.225-0.755,0.889-0.946c-8.195,1.137-3.374,5.883-12.738,7.115
						c-5.291-1.01,4.287-2.797,1.175-2.831c-2.78-4.568-10.462,4.056-17.336,2.926l1.356-0.73c-2.536-0.155-5.172,1.156-8.125,2.747
						c-2.962,1.559-6.248,3.384-10.041,4.292c0,0,0.236-0.546-0.173-0.767c-2.188,2.027-5.655,3.936-9.467,5.645
						c-3.812,1.711-7.939,3.32-11.479,4.624c1.732-2.561,3.016-1.915,1.1-3.542c-3.174,1.144,1.823,2.95-4.528,5.23
						c-2.402-0.516-7.335-0.215-8.509-2.185l6.084-1.735c-3.857-1.937-7.879,2.211-11.242,2.521l0.104-1.311
						c-9.286,2.74-8.648,5.891-18.854,8.077l1.269,0.669c-4.833,4.345-5.047-0.573-10.062,2.961l-2.387-2.699
						c-3.488,1.563-12.164,5.909-18.663,7.848c1.628-1.544,4.308-3.014,7.134-4.4c2.82-1.421,5.789-2.754,8.012-3.969
						c-1.816,0.398-4.885,1.15-7.695,2.047c-2.813,0.881-5.377,1.872-6.163,2.841c1.406-0.61,3.089-1.758,4.643-1.59
						c-3.941,3.354-9.578,5.862-16.884,7.267c0.037-3.129-4.781-2.566-10.381-1.674c-5.602,0.881-12.02,1.974-15.077,0.136
						c-6.237,2.288-12.695,3.106-19.438,3.753c-6.76,0.552-13.795,0.995-21.314,2.192c6.026,3.96-4.385,0.756-2.787,5.47
						c-3.487,0.807-4.843,0.926-5.203,0.645l-11.068-1.548c-2.705-1.094,3.218-1.493,2.755-2.541
						c-7.748,0.594-3.483-1.636-8.724-2.313c1.251,1.622-2.388,2.787-6.854,2.61l6.445,1.554c-5.247,1.893-7.7,1.133-10.148,0.369
						c-2.45-0.75-4.898-1.541-10.209,0.251l3.286-1.859c-2.741,0.71-7.879,1.217-12.977,2.044
						c-5.102,0.777-10.163,1.932-12.764,4.109c-1.034-0.483-2.433-1.714,0-2.263c-13.358,0.349-29.565,6.023-40.093,3.823
						l0.979-1.226c-2.484,0.421-4.289,2.38-7.449,1.271c0.15-0.499,0.978-1.225-0.18-1.26c-1.308,0.458-6.599,2.19-9.925,1.544
						l2.812-1.383c-3.269-0.349-6.149-0.302-8.809-0.02c-2.659,0.243-5.097,0.711-7.475,1.261c-2.377,0.549-4.694,1.173-7.106,1.707
						c-2.412,0.527-4.917,0.902-7.67,1.055c0.091-3.523-10.143-4.855-15.225-5.698l0.198-0.49
						c-15.117-0.995-25.878,1.548-40.077,1.784c-2.094-1.165-4.969-2.027-8.319-2.721c-1.675-0.346-3.469-0.649-5.344-0.928
						c-1.874-0.282-3.825-0.576-5.817-0.876c-3.984-0.586-8.15-1.058-12.149-1.771c-4-0.709-7.855-1.51-11.244-2.521
						c2.031,0.916-0.744,2.693-3.268,2.648c-3.14-1.225-9.392,0.973-8.357-2.133l1.149,0.246c-0.974-1.76-3.155-2.696-5.745-3.309
						c-2.581-0.651-5.566-1.013-8.15-1.522l-1.616,4c-1.566-1.064-3.3-1.929-5.15-2.64c-1.85-0.713-3.801-1.341-5.824-1.827
						c-4.036-1.013-8.354-1.501-12.45-2.12c-4.1-0.598-8.021-1.135-11.297-1.961c-3.271-0.843-5.875-2.059-7.371-3.838
						c-3.477,0.196-7.498-0.744-10.95-0.624l0.753-2.143c-4.369-1.497-7.639-2.616-11.208-3.671
						c-3.563-1.077-7.391-2.203-12.927-3.559l2.692-0.887c-6.088-1.939-9.677,3.854-15.411,2.147l-0.653-3.766
						c-10.725-3.432-20.335-10.079-31.768-11.172c0.351-0.397,1.011-1.192,2.756-0.681c-1.222-0.494-2.987-1.291-4.909-2.217
						c-1.918-0.935-4.019-1.935-5.966-2.713c-3.893-1.556-7.186-2.23-7.191,0.271c1.015-2.781-10.504-4.837-16.639-6.059
						l1.771-1.644c-5.815,0.462-6.295,1.086-13.15-1.214c-1.423-0.979-0.59-2.239,1.215-0.776
						c-4.642-3.422-4.912,0.036-10.573-4.067l2.923-0.146c-5.15-2.732-5.067-1.84-8.698-1.779c-1.86-0.393-4.259-1.802-6.166-3.383
						c-1.912-1.572-3.336-3.301-3.246-4.392c-1.26,0.716-4.882,0.706-7.638-1.443c-0.04-0.9,1.271-0.69,1.943-0.611
						c-3.909-3.013-7.369-4.223-10.486-5.306c-1.556-0.545-3.021-1.062-4.396-1.766c-1.356-0.734-2.619-1.662-3.788-2.987
						c0.253-0.708,0.063-1.249-0.302-1.724c1.655,1,3.229,1.95,4.652,2.81c1.436,0.837,2.719,1.585,3.778,2.202
						c2.113,1.242,3.311,1.991,3.017,1.92c0.993-1.799-4.253-5.135,1.453-5.204c-5.129-0.99-14.172-2.485-18.925-6.408
						c-0.15-0.32-0.297-0.634-0.323-1.017l0.659,0.121c-1.101-0.886-2.282-1.355-3.458-1.698c-1.466-1.315-2.378-2.181-3.937-3.192
						c0.292-1.83-5.567-4.541-8.134-6.282c-1.001,2.033-4.207-0.52-2.028,3.147c-0.326-0.411,0.629,0.11,2.443,1.119
						c0.433,0.191,0.918,0.456,1.25,0.507c-0.084,0.021-0.184,0.042-0.285,0.055c1.768,1.029,4.057,2.4,6.645,3.978
						c-2.687-0.332-5.392-0.891-7.647-3.772c-2.141,0.383-4.431,0.672-5.637,0.695c-1.879-5.003-7.783-10.938-7.645-13.164
						c-4.257-2.166-8.945-5.214-13.51-7.687c-4.527-2.527-8.853-4.602-12.542-4.675c-2.513-1.177-1.788-2.821-2.202-3.95
						c1.514,0.588,2.97,1.741,4.014,1.755c-1.25-0.584-2.698-1.449-4.211-2.395c-1.497-0.966-3.038-2.039-4.524-2.974
						c-2.967-1.876-5.675-3.254-7.101-2.493c-4.571-5.251,4.698,0.242-2.981-5.178l1.545,0.091
						c-5.641-7.685-12.665-10.846-19.615-14.68c-1.749-0.939-3.506-1.9-5.249-2.953c-1.745-1.05-3.478-2.189-5.118-3.553
						c-3.308-2.695-6.459-6.049-9.227-10.598c0.799,1.225,1.209,1.828,1.09,2.387c-1.963-2.186-3.93-4.392-5.992-6.52
						c-2.059-2.13-4.19-4.205-6.367-6.248c-2.201-2.018-4.335-4.119-6.534-6.162l-6.598-6.141
						c-4.376-4.117-8.572-8.41-12.574-12.799c-3.958-4.429-7.502-9.163-10.597-14.118c-1.897-2.693-3.237-3.928-4.633-4.694
						c-1.387-0.775-2.782-1.123-4.635-2.172l0.901-2.654l-6.594-3.375c-3.925-3.055-5.43-7.3-7.343-11.576
						c-0.945-2.148-2.006-4.3-3.46-6.392c-1.433-2.108-3.3-4.126-5.953-5.947l-0.3,2.255c-2.487-3.664-9.405-10.441-7.422-11.023
						c-0.506-0.182-2.216-0.139-2.573-2.037l0.928-0.868l-8.234-7.407c-2.162-3.642-0.916-4.138-0.067-4.945
						c0.858-0.814,1.368-1.973-2.076-7.024c-3.022-3.409-10.525-8.442-10.23-6.569c1.018,1.537,2.085,4.29,1.131,5.133l-2.969-3.037
						c-3.489,1.519-8.529,1.015-4.622,10.994l6.055,4.58l-0.112,2.959l-3.63-4.906c0.625,3.811,3.125,4.729,5.381,6.12
						c-0.447,1.044-0.38,2.256,0.196,3.622l7.118,3.588c-0.65,1.564-4.231-0.834-2.012,3.482c3.316,1.68,0.705-4.517,4.868-0.754
						c0.723,3.788-0.986,3.826,2.61,6.197c-0.409,1.033-1.434,0.732-2.729-0.312c3.094,2.201,6.292,7.275,8.991,7.535
						c0.292,2.066,2.286,4.392,3.831,6.434c1.526,2.059,2.712,3.757,1.214,4.739c1.384,0.355,6.205,3.189,8.428,5.662
						c-3.558-1.004-1.627,1.441,0.635,4.35c0.565,0.727,1.15,1.482,1.677,2.219c0.542,0.724,1.023,1.431,1.361,2.075
						c0.677,1.289,0.782,2.33-0.343,2.758c2.923,0.483,5.901,3.289,9.004,6.563c0.771,0.823,1.559,1.666,2.352,2.513
						c0.813,0.829,1.635,1.658,2.465,2.457c1.66,1.599,3.355,3.078,5.084,4.202c-0.522-0.128-1.565-0.369-1.895-1.021
						c2.784,3.541,2.817,5.282,4.236,7.916c2.652-1.657,8.025,2.893,12.003,4.285c1.603,6.071-4.966,0.122-5.886,3.368
						c1.656-1.945,8.445,5.195,8.67,2.364c1.55,4.361,1.887,3.221,1.55,6.598c3.313-2.23,3.253,2.313,7.426,3.085
						c2.956,5.672-1.491,3.742,4.126,7.598c0.738,1.531-0.214,1.518-1.355,1.117
						C253.607,1681.278,252.319,1680.454,252.319,1680.454z M382.284,1772.697c-0.011,0.019-0.019,0.032-0.023,0.039
						c-1.206-0.65-2.233-1.205-2.89-1.56C379.979,1771.494,380.819,1771.933,382.284,1772.697z M393.815,1779.428
						c-1.388-0.848-3.101-1.927-4.958-2.991c-0.013-0.907,0.826-1.342,1.96-0.625
						C389.936,1775.877,392.392,1777.903,393.815,1779.428z M377.933,1751.685c1.917,0.823,2.268,1.563,2.265,2.104
						c-0.847-0.483-1.854-1.022-3.205-1.686c-0.095,0.039-0.251,0.055-0.353,0.104
						C377.036,1751.948,377.441,1751.727,377.933,1751.685z"/>
					<path fill="#202020" d="M373.201,1752.205c-0.281-0.116-0.471-0.125-0.813-0.315c0.251,0.392,0.503,0.748,0.776,1.082
						c0.343-0.067,0.688-0.13,1.002-0.205C373.841,1752.577,373.503,1752.381,373.201,1752.205z"/>
					<path fill="#202020" d="M1493.572,1604.192l-0.259,0.114c0.241-0.058,0.468-0.103,0.663-0.063
						C1493.762,1604.257,1493.723,1604.199,1493.572,1604.192z"/>
					<polygon fill="#202020" points="563.583,1851.289 563.701,1850.73 562.444,1850.93 					"/>
					<path fill="#202020" d="M1557.171,1567.771c0.23,0.07,0.573,0.064,1.109-0.134
						C1558.157,1567.546,1557.705,1567.64,1557.171,1567.771z"/>
					<path fill="#202020" d="M1582.251,1548.523l3.959-2.233C1584.426,1547.174,1583.203,1547.904,1582.251,1548.523z"/>
					<path fill="#202020" d="M1601.591,1533.695c-0.025-0.5-0.152-0.783-0.271-1.041c-0.018,0.008-0.028,0.017-0.044,0.02
						L1601.591,1533.695z"/>
					<path fill="#202020" d="M1276.482,1741.004c-0.292,0.148-0.57,0.312-0.809,0.486
						C1273.86,1742.812,1275.146,1742.025,1276.482,1741.004z"/>
					<path fill="#202020" d="M1376.406,1684.082c-0.869,0.944-1.727,1.874-2.717,2.709
						C1375.563,1685.956,1376.975,1685.229,1376.406,1684.082z"/>
					<path fill="#202020" d="M1158.956,1793.315c0.009-0.018-0.007-0.019,0-0.042c-0.259,0.098-0.486,0.183-0.745,0.279
						L1158.956,1793.315z"/>
					<path fill="#202020" d="M1368.994,1689.332c2.006-0.592,3.456-1.502,4.695-2.541
						C1372.148,1687.468,1370.311,1688.217,1368.994,1689.332z"/>
					<path fill="#202020" d="M1675.604,1457.353l0.756-0.956c-0.134-0.066-0.194-0.194-0.219-0.321L1675.604,1457.353z"/>
					<path fill="#202020" d="M1676.141,1456.075l0.531-1.264C1676.326,1455.324,1676.042,1455.777,1676.141,1456.075z"/>
					<path fill="#202020" d="M1677.727,1452.111c0,0-0.258,0.68-0.516,1.359c-0.25,0.688-0.539,1.341-0.539,1.341
						C1677.236,1454.017,1677.923,1452.994,1677.727,1452.111z"/>
					<path fill="#202020" d="M1654.392,1482.464l0.363,0.822C1654.764,1483.021,1654.653,1482.746,1654.392,1482.464z"/>
					<path fill="#202020" d="M1647.911,1489.935c1.728-1.603,5.304-3.17,7.124-5.986l-0.28-0.662
						C1654.643,1485.291,1648.41,1487.358,1647.911,1489.935z"/>
					<path fill="#202020" d="M1611.834,1511.366l6.377-5.053c-1.634,0.336-3.79,0.75-1.245-1.91
						C1607.739,1509.464,1619.84,1504.385,1611.834,1511.366z"/>
					<path fill="#202020" d="M1592.196,1527.115c3.027-3.154-0.862-0.923-1.007-1.446
						C1589.62,1528.072,1589.24,1528.664,1592.196,1527.115z"/>
					<path fill="#202020" d="M1444.947,1633.79l-0.714-1.969C1441.543,1633.863,1444.626,1632.512,1444.947,1633.79z"/>
					<polygon fill="#202020" points="1420.635,1661.018 1424.121,1660.422 1424.507,1658.011 					"/>
					<polygon fill="#202020" points="1395.483,1658.894 1396.604,1657.899 1392.118,1661.338 					"/>
					<path fill="#202020" d="M1118.781,1786.779l1.783,2.045C1122.563,1787.645,1122.079,1784.814,1118.781,1786.779z"/>
					<path fill="#202020" d="M993.063,1826.338c-1.693-0.891-5.479-0.82-7.42,0.917
						C988.565,1826.735,991.669,1827.004,993.063,1826.338z"/>
					<path fill="#202020" d="M602.23,1839.08l2.742-0.357c0,0-1.25-0.049-2.5-0.097c-1.246-0.074-2.492-0.148-2.492-0.148
						L602.23,1839.08z"/>
				</g>
			</g>
		</g>
	</g>
</g>
<g>
</g>
<g>
</g>
<g>
</g>
<g>
</g>
<g>
</g>
<g>
</g>
<g>
</g>
<g>
</g>
<g>
</g>
<g>
</g>
<g>
</g>
<g>
</g>
<g>
</g>
<g>
</g>
<g>
</g>
</svg>
